<svg width="250" height="213" viewBox="0 0 250 213" fill="none" xmlns="http://www.w3.org/2000/svg">
<g clip-path="url(#clip0_3320_446957)">
<path d="M6.81004 176.32L248.86 170.94C248.86 170.94 251.62 118.28 245.4 86.8597C233.64 27.4697 163.14 -17.4003 109.37 51.7997C69.73 102.81 43.1 81.5697 10.5 120.07C-10.74 145.16 6.80004 176.32 6.80004 176.32H6.81004Z" fill="#E7E7E7"/>
<path d="M46.1398 187.259L143 206.649L143.18 115.169L46.3198 95.7793C42.5398 95.0193 39.4698 97.4593 39.4598 101.219L39.2998 179.069C39.2998 182.829 42.3498 186.499 46.1298 187.249L46.1398 187.259Z" fill="#84A3D8"/>
<path d="M67.4896 189.749L44.0196 185.169C43.5396 185.079 43.1496 184.609 43.1496 184.139L43.0996 167.229C43.0996 166.749 43.4896 166.439 43.9696 166.529L67.4396 171.109C67.9196 171.199 68.3096 171.669 68.3096 172.139L68.3596 189.049C68.3596 189.529 67.9696 189.839 67.4896 189.749Z" fill="white"/>
<path d="M53.42 172.4C53.42 172.6 53.42 172.77 53.4 172.91C53.38 173.05 53.36 173.15 53.32 173.23C53.28 173.3 53.24 173.36 53.19 173.39C53.14 173.42 53.09 173.43 53.03 173.42L48.71 172.58V176.12L52.78 176.91C52.84 176.92 52.9 176.95 52.94 176.99C52.99 177.03 53.03 177.1 53.07 177.19C53.11 177.28 53.14 177.39 53.15 177.53C53.17 177.67 53.18 177.84 53.18 178.04C53.18 178.24 53.18 178.41 53.16 178.54C53.14 178.67 53.12 178.78 53.08 178.86C53.04 178.94 53 179 52.95 179.02C52.9 179.05 52.85 179.06 52.79 179.04L48.73 178.25L48.75 183.16C48.75 183.23 48.73 183.3 48.69 183.34C48.65 183.38 48.58 183.42 48.47 183.43C48.36 183.45 48.23 183.45 48.06 183.43C47.89 183.42 47.67 183.38 47.41 183.33C47.15 183.28 46.93 183.23 46.76 183.17C46.59 183.12 46.45 183.06 46.35 183C46.25 182.94 46.17 182.88 46.13 182.82C46.08 182.76 46.06 182.69 46.06 182.61L46.02 170.66C46.02 170.36 46.09 170.16 46.25 170.06C46.4 169.96 46.59 169.93 46.82 169.97L53.04 171.18C53.1 171.19 53.16 171.22 53.2 171.27C53.25 171.32 53.29 171.39 53.33 171.48C53.37 171.57 53.4 171.69 53.41 171.84C53.43 171.99 53.44 172.16 53.44 172.36L53.42 172.4Z" fill="#0C2B60"/>
<path d="M65.2898 185.791C65.3698 186.051 65.4198 186.251 65.4498 186.401C65.4698 186.551 65.4498 186.651 65.3698 186.701C65.2998 186.761 65.1598 186.771 64.9698 186.761C64.7798 186.741 64.5198 186.701 64.1798 186.631C63.8298 186.561 63.5598 186.501 63.3698 186.461C63.1798 186.411 63.0298 186.361 62.9298 186.311C62.8298 186.261 62.7598 186.201 62.7098 186.141C62.6698 186.081 62.6298 186.001 62.6098 185.911L61.7098 183.091L56.7398 182.121L55.9098 184.531C55.8798 184.621 55.8498 184.691 55.7998 184.751C55.7598 184.811 55.6798 184.841 55.5898 184.861C55.4898 184.881 55.3498 184.881 55.1698 184.861C54.9898 184.841 54.7498 184.801 54.4598 184.741C54.1498 184.681 53.8998 184.621 53.7198 184.571C53.5398 184.521 53.4198 184.441 53.3498 184.351C53.2798 184.261 53.2598 184.141 53.2798 184.011C53.2998 183.871 53.3498 183.691 53.4298 183.471L57.4698 172.571C57.5098 172.461 57.5598 172.381 57.6098 172.321C57.6598 172.261 57.7498 172.221 57.8698 172.211C57.9898 172.201 58.1498 172.211 58.3598 172.241C58.5698 172.271 58.8498 172.321 59.1998 172.391C59.5998 172.471 59.9198 172.541 60.1598 172.591C60.3998 172.651 60.5798 172.711 60.7198 172.771C60.8498 172.831 60.9498 172.911 61.0098 172.991C61.0698 173.081 61.1198 173.191 61.1598 173.321L65.2798 185.801L65.2898 185.791ZM59.1898 174.941H59.1798L57.3298 180.171L61.0798 180.901L59.1898 174.931V174.941Z" fill="#20CD9A"/>
<path d="M102.84 137.529L80.7798 133.159V102.609L102.84 106.979V137.529Z" fill="#4C669B"/>
<path d="M102.84 134.13L80.7798 129.76V136.56L83.3498 135.64L85.5598 137.51L87.3398 136.28L89.5498 137.79L91.4698 137.25L95.5298 139.49L99.2398 138.76L102.66 140.9L102.84 140.83V134.13Z" fill="#4C669B"/>
<path d="M212.17 169.54L143.21 206.4L143.08 114.95L212.04 78.0896C214.73 76.6496 216.92 78.5296 216.92 82.2996L217.03 160.13C217.03 163.89 214.86 168.11 212.17 169.55V169.54Z" fill="#A1BDE5"/>
<path d="M171.81 130.029L187.51 121.689V91.1289L171.81 99.4789V130.029Z" fill="#4C669B"/>
<path d="M171.81 126.629L187.51 118.279V125.089L185.68 124.629L184.11 126.889L182.84 125.989L181.27 127.899L179.9 127.699L177.01 130.669L174.37 130.609L171.94 133.369L171.81 133.329V126.629Z" fill="#4C669B"/>
<path d="M143.44 114.99L43.8799 95.6905L113.39 58.7305L212.95 78.0305L143.44 114.99Z" fill="#668BBF"/>
<path d="M113.39 58.7305V109.16L43.8799 95.6905L113.39 58.7305Z" fill="#5173A5"/>
<path d="M143.44 114.99L117.31 151.15L16.23 128.36L39.74 99.3696C39.74 99.3696 40.21 95.7996 43.87 95.6996C47.53 95.5996 143.43 115 143.43 115L143.44 114.99Z" fill="#4C669B"/>
<path d="M166.95 140.9L143.45 114.99L212.96 78.0299C212.96 78.0299 214.24 75.9599 217.04 79.7299C219.84 83.4999 234.8 103.58 234.8 103.58L166.95 140.89V140.9Z" fill="#4C669B"/>
<path d="M134.68 27.9902L113.39 58.7302L212.95 78.0302L231.54 47.8102L134.68 27.9902Z" fill="#4C669B"/>
<path d="M113.39 58.7304L85.76 34.4004L10.5 72.6204L41.28 96.6104L113.39 58.7304Z" fill="#4C669B"/>
<path d="M217.34 195.45L198.25 185.07L193.3 171L212.39 181.39L217.34 195.45Z" fill="#1BAF7E"/>
<path d="M221.29 164.28L202.19 153.89L209.37 150.07L228.46 160.46L221.29 164.28Z" fill="#1BAF7E"/>
<path d="M194.73 178.44L175.64 168.05L189.63 160.59L208.72 170.98L194.73 178.44Z" fill="#1BAF7E"/>
<path d="M186.44 195.21L167.35 184.83L163.93 177L183.02 187.39L186.44 195.21Z" fill="#129B69"/>
<path d="M208.72 170.979L189.63 160.589L181.55 137.639L200.64 148.019L208.72 170.979Z" fill="#129B69"/>
<path d="M194.32 130.5L175.23 120.12L187.92 113.35L207.01 123.74L194.32 130.5Z" fill="#1BAF7E"/>
<path d="M183.02 187.389L163.93 176.999L175.23 120.119L194.32 130.499L183.02 187.389Z" fill="#1BAF7E"/>
<path d="M232.12 170.87L224.95 174.69L229.9 188.76L217.34 195.46L212.39 181.39L186.45 195.21L183.02 187.39L194.32 130.51L207.01 123.75L221.29 164.29L228.46 160.47L232.12 170.88V170.87ZM194.73 178.44L208.72 170.98L200.64 148.03L200.33 149.95L194.73 178.44Z" fill="#20CD9A"/>
<path d="M103.07 73.7097L85.5601 64.1797L92.3201 65.1497L109.83 74.6797L103.07 73.7097Z" fill="#1BAF7E"/>
<path d="M85.26 97.0806L67.75 87.5506L71.18 73.1406L88.69 82.6606L85.26 97.0806Z" fill="#1BAF7E"/>
<path d="M91.2302 72.0012L73.7202 62.4812L79.3202 38.9512L96.8302 48.4812L91.2302 72.0012Z" fill="#129B69"/>
<path d="M101 30.4304L83.4902 20.9004L95.4502 22.6204L112.96 32.1504L101 30.4304Z" fill="#1BAF7E"/>
<path d="M78.04 70.1003L60.52 60.5703L73.72 62.4803L91.23 72.0003L78.04 70.1003Z" fill="#1BAF7E"/>
<path d="M65.6804 70.7304L48.1704 61.2004L83.4904 20.9004L101 30.4304L65.6804 70.7304Z" fill="#1BAF7E"/>
<path d="M64.2302 79.1412L46.7202 69.6112L48.1702 61.2012L65.6802 70.7312L64.2302 79.1412Z" fill="#129B69"/>
<path d="M112.96 32.1497L103.07 73.7097L109.83 74.6797L107.29 85.3397L100.53 84.3697L97.09 98.7897L85.25 97.0797L88.69 82.6597L64.23 79.1297L65.68 70.7197L101 30.4297L112.96 32.1497ZM91.23 71.9997L96.83 48.4697L95.69 49.8697L78.04 70.0897L91.23 71.9897" fill="#20CD9A"/>
<path d="M156.34 99.3299L140.25 90.5799C140.52 90.7299 140.79 90.8599 141.06 90.9699C142.01 91.3599 142.97 91.4899 143.93 91.3499C145.21 91.1699 146.48 90.5299 147.76 89.4199L163.85 98.1699C162.57 99.2799 161.29 99.9199 160.02 100.1C159.06 100.23 158.11 100.1 157.15 99.7199C156.88 99.6099 156.61 99.4799 156.34 99.3299Z" fill="#129B69"/>
<path d="M156.34 99.3301L140.25 90.5801C140.35 90.6301 140.45 90.6901 140.55 90.7401L156.64 99.4901C156.54 99.4401 156.44 99.3901 156.34 99.3301Z" fill="#129B69"/>
<path d="M156.64 99.4902L140.55 90.7402C140.72 90.8202 140.89 90.9002 141.06 90.9702C141.32 91.0702 141.57 91.1602 141.83 91.2302L157.92 99.9802C157.66 99.9102 157.41 99.8302 157.15 99.7202C156.98 99.6502 156.81 99.5802 156.64 99.4902Z" fill="#129B69"/>
<path d="M157.93 99.9803L141.84 91.2303C142.54 91.4103 143.24 91.4503 143.94 91.3503C144.52 91.2703 145.1 91.0903 145.68 90.8203L161.77 99.5703C161.19 99.8403 160.61 100.02 160.03 100.1C159.33 100.2 158.63 100.16 157.93 99.9803Z" fill="#129B69"/>
<path d="M161.76 99.5706L145.67 90.8206C146.06 90.6406 146.45 90.4106 146.84 90.1406L162.93 98.8906C162.54 99.1606 162.15 99.3906 161.76 99.5706Z" fill="#129B69"/>
<path d="M162.93 98.8899L146.84 90.1399C147.15 89.9299 147.46 89.6899 147.76 89.4199L163.85 98.1699C163.54 98.4399 163.23 98.6799 162.93 98.8899Z" fill="#129B69"/>
<path d="M163.86 98.1698L147.77 89.4198C149.99 87.4998 151 85.2498 150.82 82.6898C150.63 80.1298 149.36 77.0698 147 73.5098L163.09 82.2598C165.45 85.8198 166.72 88.8798 166.91 91.4398C167.09 93.9998 166.08 96.2498 163.86 98.1698Z" fill="#129B69"/>
<path d="M163.86 98.1695L147.77 89.4195C147.83 89.3695 147.89 89.3195 147.94 89.2695L164.03 98.0195C163.97 98.0695 163.91 98.1195 163.86 98.1695Z" fill="#129B69"/>
<path d="M164.03 98.0091L147.94 89.2591C148.26 88.9691 148.55 88.6791 148.82 88.3691L164.91 97.1191C164.64 97.4191 164.35 97.7191 164.03 98.0091Z" fill="#129B69"/>
<path d="M164.91 97.1303L148.82 88.3803C149.05 88.1203 149.27 87.8503 149.46 87.5703L165.55 96.3203C165.36 96.5903 165.14 96.8603 164.91 97.1303Z" fill="#129B69"/>
<path d="M165.55 96.32L149.46 87.57C149.65 87.3 149.82 87.03 149.97 86.75L166.06 95.5C165.91 95.78 165.74 96.05 165.55 96.32Z" fill="#129B69"/>
<path d="M166.06 95.4991L149.97 86.7491C150.14 86.4391 150.28 86.1191 150.4 85.7891L166.49 94.5391C166.37 94.8691 166.23 95.1891 166.06 95.4991Z" fill="#129B69"/>
<path d="M166.49 94.5398L150.4 85.7898C150.76 84.8098 150.9 83.7798 150.82 82.6898C150.63 80.1298 149.36 77.0698 147 73.5098L163.09 82.2598C165.45 85.8198 166.72 88.8798 166.91 91.4398C166.99 92.5298 166.85 93.5698 166.49 94.5398Z" fill="#129B69"/>
<path d="M149.58 108.781L133.49 100.031C130.31 98.3012 127.28 95.3812 124.42 91.2812L140.51 100.031C143.38 104.131 146.4 107.051 149.58 108.781Z" fill="#1BAF7E"/>
<path d="M149.58 108.781L133.49 100.031C130.31 98.3012 127.28 95.3812 124.42 91.2812L140.51 100.031C143.38 104.131 146.4 107.051 149.58 108.781Z" fill="#1BAF7E"/>
<path d="M163.09 82.2603L147 73.5103L139.71 62.8203L155.8 71.5703L163.09 82.2603Z" fill="#129B69"/>
<path d="M133.56 56.4609L149.65 65.2109C151.57 66.2609 153.63 68.3809 155.8 71.5709L139.71 62.8209C137.53 59.6309 135.48 57.5109 133.56 56.4609Z" fill="#129B69"/>
<path d="M155.8 71.5709L139.71 62.8209C137.53 59.6309 135.48 57.5109 133.56 56.4609L149.65 65.2109C151.57 66.2609 153.63 68.3809 155.8 71.5709Z" fill="#129B69"/>
<path d="M140.51 100.04L124.42 91.2798L118.78 83.0098L134.87 91.7598L140.51 100.04Z" fill="#1BAF7E"/>
<path d="M140.29 47.0405L156.38 55.7905C154.93 55.0005 153.44 54.4605 151.92 54.1605C150.43 53.8705 148.93 53.8305 147.42 54.0405C144.05 54.5105 140.64 56.2405 137.19 59.2305C132.21 63.5405 129.51 68.4705 129.08 74.0205C128.65 79.5605 130.58 85.4805 134.86 91.7505L118.77 83.0005C114.49 76.7205 112.56 70.8105 112.99 65.2705C113.42 59.7305 116.12 54.8005 121.1 50.4805C124.55 47.4905 127.95 45.7605 131.33 45.2905C132.84 45.0805 134.34 45.1205 135.83 45.4105C137.35 45.7005 138.84 46.2405 140.29 47.0405Z" fill="#1BAF7E"/>
<path d="M134.87 91.7611L118.78 83.0111C114.5 76.7311 112.57 70.8211 113 65.2811C113.14 63.5011 113.51 61.7811 114.12 60.1211L130.21 68.8711C129.6 70.5311 129.23 72.2511 129.09 74.0311C128.66 79.5711 130.59 85.4911 134.87 91.7611Z" fill="#1BAF7E"/>
<path d="M130.2 68.8703L114.11 60.1203C114.43 59.2503 114.81 58.4003 115.26 57.5703L131.35 66.3203C130.9 67.1503 130.52 68.0003 130.2 68.8703Z" fill="#1BAF7E"/>
<path d="M131.35 66.3204L115.26 57.5704C115.66 56.8304 116.1 56.1104 116.6 55.4004L132.69 64.1504C132.19 64.8604 131.74 65.5804 131.35 66.3204Z" fill="#1BAF7E"/>
<path d="M132.7 64.1498L116.61 55.3998C117.12 54.6698 117.69 53.9598 118.31 53.2598L134.4 62.0098C133.78 62.7098 133.22 63.4198 132.7 64.1498Z" fill="#1BAF7E"/>
<path d="M134.39 62.0006L118.3 53.2506C119.01 52.4506 119.79 51.6606 120.64 50.8906L136.73 59.6406C135.88 60.4106 135.1 61.1906 134.39 62.0006Z" fill="#1BAF7E"/>
<path d="M136.74 59.6493L120.65 50.8993C120.8 50.7693 120.95 50.6293 121.11 50.4993C121.95 49.7693 122.79 49.1093 123.63 48.5293L139.72 57.2793C138.88 57.8593 138.04 58.5193 137.2 59.2493C137.05 59.3793 136.89 59.5193 136.74 59.6493Z" fill="#1BAF7E"/>
<path d="M139.72 57.2809L123.63 48.5309C124.67 47.8109 125.72 47.2009 126.75 46.7109L142.84 55.4609C141.8 55.9509 140.76 56.5609 139.72 57.2809Z" fill="#1BAF7E"/>
<path d="M142.84 55.4603L126.75 46.7103C128.28 45.9903 129.81 45.5203 131.33 45.3003C132.84 45.0903 134.34 45.1303 135.83 45.4203C136.13 45.4803 136.42 45.5403 136.72 45.6203L152.81 54.3703C152.52 54.2903 152.22 54.2303 151.92 54.1703C150.43 53.8803 148.93 53.8403 147.42 54.0503C145.9 54.2603 144.37 54.7303 142.84 55.4603Z" fill="#1BAF7E"/>
<path d="M152.81 54.3711L136.72 45.6211C137.72 45.8811 138.7 46.2511 139.67 46.7211L155.76 55.4711C154.79 54.9911 153.81 54.6311 152.81 54.3711Z" fill="#1BAF7E"/>
<path d="M155.76 55.4707L139.67 46.7207C139.88 46.8207 140.09 46.9307 140.29 47.0407L156.38 55.7907C156.17 55.6807 155.97 55.5707 155.76 55.4707Z" fill="#1BAF7E"/>
<path d="M171.07 72.8003C175.31 79.0203 177.25 84.9003 176.88 90.4603C176.51 96.0203 173.8 100.99 168.76 105.36C165.33 108.34 161.92 110.06 158.55 110.53C157.03 110.74 155.53 110.7 154.03 110.41C149.19 109.47 144.68 106.01 140.51 100.03L134.87 91.7603C130.59 85.4803 128.66 79.5703 129.09 74.0303C129.52 68.4903 132.22 63.5603 137.2 59.2403C140.65 56.2503 144.05 54.5203 147.43 54.0503C148.94 53.8403 150.44 53.8803 151.93 54.1703C156.76 55.1003 161.27 58.5503 165.44 64.5303L171.08 72.8003H171.07ZM163.85 98.1703C166.07 96.2503 167.08 94.0003 166.9 91.4403C166.71 88.8803 165.44 85.8203 163.08 82.2603L155.79 71.5703C153.25 67.8403 150.87 65.5803 148.68 64.7803C147.78 64.4503 146.88 64.3503 145.97 64.4803C144.68 64.6603 143.38 65.3103 142.09 66.4403C139.95 68.2903 138.94 70.4603 139.02 72.9603C139.11 75.4503 140.29 78.4503 142.58 81.9403L150.04 92.8803C152.55 96.5503 154.91 98.8303 157.14 99.7303C158.09 100.12 159.05 100.25 160.01 100.11C161.29 99.9303 162.56 99.2903 163.84 98.1803" fill="#20CD9A"/>
<path d="M83.95 199.239C93.42 213.209 112.48 216.859 126.51 207.409C132.36 203.469 136.42 197.859 138.47 191.659L136.42 191.259L137.66 184.839L139.84 185.259C140.57 178.359 138.96 171.189 134.76 164.999C125.29 151.029 106.23 147.379 92.2 156.829C78.16 166.289 74.46 185.269 83.93 199.239H83.95ZM94.97 161.029C106.63 153.149 122.47 156.209 130.35 167.869C138.23 179.529 135.17 195.369 123.51 203.249C111.85 211.129 96.01 208.069 88.13 196.409C80.25 184.749 83.31 168.909 94.97 161.029Z" fill="#7A92BC"/>
<path d="M88.1299 196.409C96.0099 208.069 111.85 211.129 123.51 203.249C135.17 195.369 138.23 179.529 130.35 167.869C122.47 156.209 106.63 153.149 94.9699 161.029C83.3099 168.909 80.2499 184.749 88.1299 196.409ZM96.4899 163.279C106.91 156.239 121.06 158.979 128.1 169.399C129.3 171.179 130.22 173.069 130.86 175.009C131.04 175.539 131.19 176.079 131.33 176.619C131.53 177.399 131.68 178.189 131.79 178.989C132.36 183.109 131.79 187.299 130.18 191.099C128.52 194.989 125.76 198.469 121.99 201.009C111.57 208.049 97.4199 205.309 90.3799 194.889C90.3299 194.819 90.2899 194.749 90.2499 194.689C87.8699 191.089 86.6499 187.049 86.4999 183.019C86.4699 182.229 86.4799 181.439 86.5299 180.649C86.5699 180.079 86.6299 179.509 86.7099 178.939C87.5899 172.799 90.9599 167.029 96.4999 163.279H96.4899Z" fill="#BFCBE2"/>
<path d="M86.49 183.01L131.79 178.97C131.68 178.18 131.53 177.39 131.33 176.6L86.52 180.63C86.47 181.42 86.46 182.21 86.49 183V183.01Z" fill="#E2E9F7"/>
<path d="M130.86 175C130.22 173.06 129.3 171.17 128.1 169.39C121.06 158.97 106.91 156.23 96.4902 163.27C90.9402 167.02 87.5702 172.78 86.7002 178.93L130.87 174.99L130.86 175Z" fill="#E2E9F7"/>
<path d="M90.3802 194.89C97.4202 205.31 111.57 208.05 121.99 201.01C125.76 198.46 128.52 194.99 130.18 191.1L90.2402 194.69C90.2802 194.76 90.3302 194.83 90.3702 194.89H90.3802Z" fill="#E2E9F7"/>
<path d="M90.2402 194.69L130.18 191.1C131.8 187.3 132.37 183.1 131.79 178.99L86.4902 183.03C86.6402 187.06 87.8602 191.1 90.2402 194.7V194.69Z" fill="white"/>
<path d="M86.5198 180.64L131.33 176.61C131.19 176.07 131.04 175.53 130.86 175L86.6898 178.94C86.6098 179.51 86.5498 180.08 86.5098 180.65L86.5198 180.64Z" fill="white"/>
<path d="M138.48 191.65L144.88 192.89C144.88 192.71 144.9 192.52 144.93 192.34L145.91 187.25C145.96 186.97 146.06 186.72 146.18 186.48L139.85 185.26C139.62 187.43 139.16 189.58 138.47 191.66L138.48 191.65Z" fill="#7A92BC"/>
<path d="M136.43 191.26L138.48 191.66C139.17 189.58 139.63 187.44 139.86 185.26L137.68 184.84L136.44 191.26H136.43Z" fill="#7A92BC"/>
<path d="M151.78 194.229L144.88 192.899C144.88 194.239 145.84 195.439 147.2 195.699L173.7 200.829C175.25 201.129 176.76 200.109 177.05 198.559L178.03 193.469C178.33 191.919 177.31 190.409 175.76 190.119L149.26 184.989C147.99 184.739 146.75 185.389 146.18 186.479L153.02 187.799L151.78 194.219V194.229Z" fill="#4C669B"/>
<path d="M145.92 187.249L144.94 192.339C144.9 192.529 144.89 192.709 144.89 192.889L151.79 194.219L153.03 187.799L146.19 186.479C146.07 186.719 145.97 186.979 145.92 187.249Z" fill="#4C669B"/>
</g>
<defs>
<clipPath id="clip0_3320_446957">
<rect width="249.47" height="212.66" fill="white"/>
</clipPath>
</defs>
</svg>
