<svg width="250" height="213" viewBox="0 0 250 213" fill="none" xmlns="http://www.w3.org/2000/svg">
<g clip-path="url(#clip0_110_126)">
<path d="M6.81004 176.32L248.86 170.94C248.86 170.94 251.62 118.28 245.4 86.86C233.64 27.47 163.14 -17.4 109.37 51.8C69.73 102.81 43.1 81.57 10.5 120.07C-10.74 145.16 6.80004 176.32 6.80004 176.32H6.81004Z" fill="#EE1C25" fill-opacity="0.2"/>
<path d="M46.14 187.26L143 206.65L143.18 115.17L46.32 95.78C42.54 95.02 39.47 97.46 39.46 101.22L39.3 179.07C39.3 182.83 42.3501 186.5 46.1301 187.25L46.14 187.26Z" fill="#84A3D8"/>
<path d="M67.4901 189.75L44.0201 185.17C43.5401 185.08 43.1501 184.61 43.1501 184.14L43.1001 167.23C43.1001 166.75 43.4901 166.44 43.9701 166.53L67.4401 171.11C67.9201 171.2 68.3101 171.67 68.3101 172.14L68.3601 189.05C68.3601 189.53 67.9701 189.84 67.4901 189.75Z" fill="#84A3D8"/>
<path d="M53.42 172.4C53.42 172.6 53.42 172.77 53.4 172.91C53.38 173.05 53.36 173.15 53.32 173.23C53.28 173.3 53.24 173.36 53.19 173.39C53.14 173.42 53.09 173.43 53.03 173.42L48.71 172.58V176.12L52.78 176.91C52.84 176.92 52.9 176.95 52.94 176.99C52.99 177.03 53.03 177.1 53.07 177.19C53.11 177.28 53.14 177.39 53.15 177.53C53.17 177.67 53.18 177.84 53.18 178.04C53.18 178.24 53.18 178.41 53.16 178.54C53.14 178.67 53.12 178.78 53.08 178.86C53.04 178.94 53 179 52.95 179.02C52.9 179.05 52.85 179.06 52.79 179.04L48.73 178.25L48.75 183.16C48.75 183.23 48.73 183.3 48.69 183.34C48.65 183.38 48.58 183.42 48.47 183.43C48.36 183.45 48.23 183.45 48.06 183.43C47.89 183.42 47.67 183.38 47.41 183.33C47.15 183.28 46.93 183.23 46.76 183.17C46.59 183.12 46.45 183.06 46.35 183C46.25 182.94 46.17 182.88 46.13 182.82C46.08 182.76 46.06 182.69 46.06 182.61L46.02 170.66C46.02 170.36 46.09 170.16 46.25 170.06C46.4 169.96 46.59 169.93 46.82 169.97L53.04 171.18C53.1 171.19 53.16 171.22 53.2 171.27C53.25 171.32 53.29 171.39 53.33 171.48C53.37 171.57 53.4 171.69 53.41 171.84C53.43 171.99 53.44 172.16 53.44 172.36L53.42 172.4Z" fill="#84A3D8"/>
<path d="M65.2901 185.79C65.3701 186.05 65.4201 186.25 65.4501 186.4C65.4701 186.55 65.4501 186.65 65.3701 186.7C65.3001 186.76 65.1601 186.77 64.9701 186.76C64.7801 186.74 64.5201 186.7 64.1801 186.63C63.8301 186.56 63.5601 186.5 63.3701 186.46C63.1801 186.41 63.0301 186.36 62.9301 186.31C62.8301 186.26 62.7601 186.2 62.7101 186.14C62.6701 186.08 62.6301 186 62.6101 185.91L61.7101 183.09L56.7401 182.12L55.9101 184.53C55.8801 184.62 55.8501 184.69 55.8001 184.75C55.7601 184.81 55.6801 184.84 55.5901 184.86C55.4901 184.88 55.3501 184.88 55.1701 184.86C54.9901 184.84 54.7501 184.8 54.4601 184.74C54.1501 184.68 53.9001 184.62 53.7201 184.57C53.5401 184.52 53.4201 184.44 53.3501 184.35C53.2801 184.26 53.2601 184.14 53.2801 184.01C53.3001 183.87 53.3501 183.69 53.4301 183.47L57.4701 172.57C57.5101 172.46 57.5601 172.38 57.6101 172.32C57.6601 172.26 57.7501 172.22 57.8701 172.21C57.9901 172.2 58.1501 172.21 58.3601 172.24C58.5701 172.27 58.8501 172.32 59.2001 172.39C59.6001 172.47 59.9201 172.54 60.1601 172.59C60.4001 172.65 60.5801 172.71 60.7201 172.77C60.8501 172.83 60.9501 172.91 61.0101 172.99C61.0701 173.08 61.1201 173.19 61.1601 173.32L65.2801 185.8L65.2901 185.79ZM59.1901 174.94H59.1801L57.3301 180.17L61.0801 180.9L59.1901 174.93V174.94Z" fill="#84A3D8"/>
<path d="M102.84 137.53L80.78 133.16V102.61L102.84 106.98V137.53Z" fill="#84A3D8"/>
<path d="M102.84 134.13L80.78 129.76V136.56L83.35 135.64L85.56 137.51L87.34 136.28L89.55 137.79L91.47 137.25L95.53 139.49L99.24 138.76L102.66 140.9L102.84 140.83V134.13Z" fill="#84A3D8"/>
<path d="M212.17 169.54L143.21 206.4L143.08 114.95L212.04 78.09C214.73 76.65 216.92 78.53 216.92 82.3L217.03 160.13C217.03 163.89 214.86 168.11 212.17 169.55V169.54Z" fill="#A1BDE5"/>
<path d="M171.81 130.03L187.51 121.69V91.13L171.81 99.48V130.03Z" fill="#84A3D8"/>
<path d="M171.81 126.63L187.51 118.28V125.09L185.68 124.63L184.11 126.89L182.84 125.99L181.27 127.9L179.9 127.7L177.01 130.67L174.37 130.61L171.94 133.37L171.81 133.33V126.63Z" fill="#84A3D8"/>
<path d="M143.44 114.99L43.88 95.69L113.39 58.73L212.95 78.03L143.44 114.99Z" fill="#668BBF"/>
<path d="M113.39 58.73V109.16L43.88 95.69L113.39 58.73Z" fill="#5173A5"/>
<path d="M143.44 114.99L117.31 151.15L16.23 128.36L39.74 99.37C39.74 99.37 40.21 95.8 43.87 95.7C47.53 95.6 143.43 115 143.43 115L143.44 114.99Z" fill="#4C669B"/>
<path d="M134.68 27.99L113.39 58.73L212.95 78.03L231.54 47.81L134.68 27.99Z" fill="#4C669B"/>
<path d="M113.39 58.73L85.76 34.4L10.5 72.62L41.28 96.61L113.39 58.73Z" fill="#4C669B"/>
<path d="M217.34 195.45L198.25 185.07L193.3 171L212.39 181.39L217.34 195.45Z" fill="#EE1C25" fill-opacity="0.6"/>
<path d="M221.29 164.28L202.19 153.89L209.37 150.07L228.46 160.46L221.29 164.28Z" fill="#EE1C25" fill-opacity="0.6"/>
<path d="M194.73 178.44L175.64 168.05L189.63 160.59L208.72 170.98L194.73 178.44Z" fill="#EE1C25" fill-opacity="0.6"/>
<path d="M186.44 195.21L167.35 184.83L163.93 177L183.02 187.39L186.44 195.21Z" fill="#EE1C25" fill-opacity="0.8"/>
<path d="M208.72 170.98L189.63 160.59L181.55 137.64L200.64 148.02L208.72 170.98Z" fill="#EE1C25" fill-opacity="0.8"/>
<path d="M194.32 130.5L175.23 120.12L187.92 113.35L207.01 123.74L194.32 130.5Z" fill="#EE1C25" fill-opacity="0.6"/>
<path d="M183.02 187.39L163.93 177L175.23 120.12L194.32 130.5L183.02 187.39Z" fill="#EE1C25" fill-opacity="0.6"/>
<path d="M232.12 170.87L224.95 174.69L229.9 188.76L217.34 195.46L212.39 181.39L186.45 195.21L183.02 187.39L194.32 130.51L207.01 123.75L221.29 164.29L228.46 160.47L232.12 170.88V170.87ZM194.73 178.44L208.72 170.98L200.64 148.03L200.33 149.95L194.73 178.44Z" fill="#EE1C25"/>
<path d="M103.07 73.71L85.5599 64.18L92.3199 65.15L109.83 74.68L103.07 73.71Z" fill="#EE1C25" fill-opacity="0.8"/>
<path d="M85.26 97.08L67.75 87.55L71.18 73.14L88.69 82.66L85.26 97.08Z" fill="#EE1C25" fill-opacity="0.8"/>
<path d="M91.23 72L73.72 62.48L79.32 38.95L96.83 48.48L91.23 72Z" fill="#EE1C25" fill-opacity="0.4"/>
<path d="M101 30.43L83.49 20.9L95.45 22.62L112.96 32.15L101 30.43Z" fill="#EE1C25" fill-opacity="0.8"/>
<path d="M78.04 70.1L60.52 60.57L73.72 62.48L91.23 72L78.04 70.1Z" fill="#EE1C25" fill-opacity="0.8"/>
<path d="M65.6799 70.73L48.1699 61.2L83.4899 20.9L101 30.43L65.6799 70.73Z" fill="#EE1C25" fill-opacity="0.8"/>
<path d="M64.23 79.14L46.72 69.61L48.17 61.2L65.68 70.73L64.23 79.14Z" fill="#EE1C25" fill-opacity="0.4"/>
<path d="M112.96 32.15L103.07 73.71L109.83 74.68L107.29 85.34L100.53 84.37L97.09 98.79L85.25 97.08L88.69 82.66L64.23 79.13L65.68 70.72L101 30.43L112.96 32.15V32.15ZM91.23 72L96.83 48.47L95.69 49.87L78.04 70.09L91.23 71.99" fill="#EE1C25"/>
<path d="M156.34 99.33L140.25 90.58C140.52 90.73 140.79 90.86 141.06 90.97C142.01 91.36 142.97 91.49 143.93 91.35C145.21 91.17 146.48 90.53 147.76 89.42L163.85 98.17C162.57 99.28 161.29 99.92 160.02 100.1C159.06 100.23 158.11 100.1 157.15 99.72C156.88 99.61 156.61 99.48 156.34 99.33Z" fill="#EE1C25"/>
<path d="M156.34 99.33L140.25 90.58C140.35 90.63 140.45 90.69 140.55 90.74L156.64 99.49C156.54 99.44 156.44 99.39 156.34 99.33Z" fill="#EE1C25"/>
<path d="M156.64 99.49L140.55 90.74C140.72 90.82 140.89 90.9 141.06 90.97C141.32 91.07 141.57 91.16 141.83 91.23L157.92 99.98C157.66 99.91 157.41 99.83 157.15 99.72C156.98 99.65 156.81 99.58 156.64 99.49Z" fill="#EE1C25"/>
<path d="M157.93 99.98L141.84 91.23C142.54 91.41 143.24 91.45 143.94 91.35C144.52 91.27 145.1 91.09 145.68 90.82L161.77 99.57C161.19 99.84 160.61 100.02 160.03 100.1C159.33 100.2 158.63 100.16 157.93 99.98Z" fill="#EE1C25"/>
<path d="M161.76 99.57L145.67 90.82C146.06 90.64 146.45 90.41 146.84 90.14L162.93 98.89C162.54 99.16 162.15 99.39 161.76 99.57Z" fill="#EE1C25"/>
<path d="M162.93 98.89L146.84 90.14C147.15 89.93 147.46 89.69 147.76 89.42L163.85 98.17C163.54 98.44 163.23 98.68 162.93 98.89Z" fill="#EE1C25"/>
<path d="M163.86 98.17L147.77 89.42C149.99 87.5 151 85.25 150.82 82.69C150.63 80.13 149.36 77.07 147 73.51L163.09 82.26C165.45 85.82 166.72 88.88 166.91 91.44C167.09 94 166.08 96.25 163.86 98.17Z" fill="#EE1C25"/>
<path d="M163.86 98.17L147.77 89.42C147.83 89.37 147.89 89.32 147.94 89.27L164.03 98.02C163.97 98.07 163.91 98.12 163.86 98.17Z" fill="#EE1C25"/>
<path d="M164.03 98.01L147.94 89.26C148.26 88.97 148.55 88.68 148.82 88.37L164.91 97.12C164.64 97.42 164.35 97.72 164.03 98.01Z" fill="#EE1C25"/>
<path d="M164.91 97.13L148.82 88.38C149.05 88.12 149.27 87.85 149.46 87.57L165.55 96.32C165.36 96.59 165.14 96.86 164.91 97.13Z" fill="#EE1C25"/>
<path d="M165.55 96.32L149.46 87.57C149.65 87.3 149.82 87.03 149.97 86.75L166.06 95.5C165.91 95.78 165.74 96.05 165.55 96.32Z" fill="#EE1C25"/>
<path d="M166.06 95.5L149.97 86.75C150.14 86.44 150.28 86.12 150.4 85.79L166.49 94.54C166.37 94.87 166.23 95.19 166.06 95.5Z" fill="#EE1C25"/>
<path d="M166.49 94.54L150.4 85.79C150.76 84.81 150.9 83.78 150.82 82.69C150.63 80.13 149.36 77.07 147 73.51L163.09 82.26C165.45 85.82 166.72 88.88 166.91 91.44C166.99 92.53 166.85 93.57 166.49 94.54" fill="#EE1C25"/>
<path d="M149.58 108.78L133.49 100.03C130.31 98.3 127.28 95.38 124.42 91.28L140.51 100.03C143.38 104.13 146.4 107.05 149.58 108.78Z" fill="#EE1C25" fill-opacity="0.8"/>
<path d="M149.58 108.78L133.49 100.03C130.31 98.3 127.28 95.38 124.42 91.28L140.51 100.03C143.38 104.13 146.4 107.05 149.58 108.78Z" fill="#EE1C25" fill-opacity="0.8"/>
<path d="M163.09 82.26L147 73.51L139.71 62.82L155.8 71.57L163.09 82.26Z" fill="#EE1C25"/>
<path d="M133.56 56.46L149.65 65.21C151.57 66.26 153.63 68.38 155.8 71.57L139.71 62.82C137.53 59.63 135.48 57.51 133.56 56.46V56.46Z" fill="#EE1C25"/>
<path d="M155.8 71.57L139.71 62.82C137.53 59.63 135.48 57.51 133.56 56.46L149.65 65.21C151.57 66.26 153.63 68.38 155.8 71.57Z" fill="#EE1C25"/>
<path d="M140.51 100.04L124.42 91.28L118.78 83.01L134.87 91.76L140.51 100.04Z" fill="#EE1C25" fill-opacity="0.8"/>
<path d="M140.29 47.04L156.38 55.79C154.93 55 153.44 54.46 151.92 54.16C150.43 53.87 148.93 53.83 147.42 54.04C144.05 54.51 140.64 56.24 137.19 59.23C132.21 63.54 129.51 68.47 129.08 74.02C128.65 79.56 130.58 85.48 134.86 91.75L118.77 83C114.49 76.72 112.56 70.81 112.99 65.27C113.42 59.73 116.12 54.8 121.1 50.48C124.55 47.49 127.95 45.76 131.33 45.29C132.84 45.08 134.34 45.12 135.83 45.41C137.35 45.7 138.84 46.24 140.29 47.04Z" fill="#EE1C25" fill-opacity="0.8"/>
<path d="M134.87 91.76L118.78 83.01C114.5 76.73 112.57 70.82 113 65.28C113.14 63.5 113.51 61.78 114.12 60.12L130.21 68.87C129.6 70.53 129.23 72.25 129.09 74.03C128.66 79.57 130.59 85.49 134.87 91.76Z" fill="#EE1C25" fill-opacity="0.8"/>
<path d="M130.2 68.87L114.11 60.12C114.43 59.25 114.81 58.4 115.26 57.57L131.35 66.32C130.9 67.15 130.52 68 130.2 68.87Z" fill="#EE1C25" fill-opacity="0.8"/>
<path d="M131.35 66.32L115.26 57.57C115.66 56.83 116.1 56.11 116.6 55.4L132.69 64.15C132.19 64.86 131.74 65.58 131.35 66.32Z" fill="#EE1C25" fill-opacity="0.8"/>
<path d="M132.7 64.15L116.61 55.4C117.12 54.67 117.69 53.96 118.31 53.26L134.4 62.01C133.78 62.71 133.22 63.42 132.7 64.15Z" fill="#EE1C25" fill-opacity="0.8"/>
<path d="M134.39 62L118.3 53.25C119.01 52.45 119.79 51.66 120.64 50.89L136.73 59.64C135.88 60.41 135.1 61.19 134.39 62Z" fill="#EE1C25" fill-opacity="0.8"/>
<path d="M136.74 59.65L120.65 50.9C120.8 50.77 120.95 50.63 121.11 50.5C121.95 49.77 122.79 49.11 123.63 48.53L139.72 57.28C138.88 57.86 138.04 58.52 137.2 59.25C137.05 59.38 136.89 59.52 136.74 59.65" fill="#EE1C25" fill-opacity="0.8"/>
<path d="M139.72 57.28L123.63 48.53C124.67 47.81 125.72 47.2 126.75 46.71L142.84 55.46C141.8 55.95 140.76 56.56 139.72 57.28Z" fill="#EE1C25" fill-opacity="0.8"/>
<path d="M142.84 55.46L126.75 46.71C128.28 45.99 129.81 45.52 131.33 45.3C132.84 45.09 134.34 45.13 135.83 45.42C136.13 45.48 136.42 45.54 136.72 45.62L152.81 54.37C152.52 54.29 152.22 54.23 151.92 54.17C150.43 53.88 148.93 53.84 147.42 54.05C145.9 54.26 144.37 54.73 142.84 55.46Z" fill="#EE1C25" fill-opacity="0.8"/>
<path d="M152.81 54.37L136.72 45.62C137.72 45.88 138.7 46.25 139.67 46.72L155.76 55.47C154.79 54.99 153.81 54.63 152.81 54.37Z" fill="#EE1C25" fill-opacity="0.8"/>
<path d="M155.76 55.47L139.67 46.72C139.88 46.82 140.09 46.93 140.29 47.04L156.38 55.79C156.17 55.68 155.97 55.57 155.76 55.47Z" fill="#EE1C25" fill-opacity="0.8"/>
<path d="M171.07 72.8C175.31 79.02 177.25 84.9 176.88 90.46C176.51 96.02 173.8 100.99 168.76 105.36C165.33 108.34 161.92 110.06 158.55 110.53C157.03 110.74 155.53 110.7 154.03 110.41C149.19 109.47 144.68 106.01 140.51 100.03L134.87 91.76C130.59 85.48 128.66 79.57 129.09 74.03C129.52 68.49 132.22 63.56 137.2 59.24C140.65 56.25 144.05 54.52 147.43 54.05C148.94 53.84 150.44 53.88 151.93 54.17C156.76 55.1 161.27 58.55 165.44 64.53L171.08 72.8H171.07ZM163.85 98.17C166.07 96.25 167.08 94 166.9 91.44C166.71 88.88 165.44 85.82 163.08 82.26L155.79 71.57C153.25 67.84 150.87 65.58 148.68 64.78C147.78 64.45 146.88 64.35 145.97 64.48C144.68 64.66 143.38 65.31 142.09 66.44C139.95 68.29 138.94 70.46 139.02 72.96C139.11 75.45 140.29 78.45 142.58 81.94L150.04 92.88C152.55 96.55 154.91 98.83 157.14 99.73C158.09 100.12 159.05 100.25 160.01 100.11C161.29 99.93 162.56 99.29 163.84 98.18" fill="#EE1C25" fill-opacity="0.4"/>
<path d="M83.95 199.24C93.42 213.21 112.48 216.86 126.51 207.41C132.36 203.47 136.42 197.86 138.47 191.66L136.42 191.26L137.66 184.84L139.84 185.26C140.57 178.36 138.96 171.19 134.76 165C125.29 151.03 106.23 147.38 92.2 156.83C78.16 166.29 74.46 185.27 83.93 199.24H83.95ZM94.97 161.03C106.63 153.15 122.47 156.21 130.35 167.87C138.23 179.53 135.17 195.37 123.51 203.25C111.85 211.13 96.01 208.07 88.13 196.41C80.25 184.75 83.31 168.91 94.97 161.03Z" fill="#7A92BC"/>
<path d="M88.13 196.41C96.01 208.07 111.85 211.13 123.51 203.25C135.17 195.37 138.23 179.53 130.35 167.87C122.47 156.21 106.63 153.15 94.97 161.03C83.31 168.91 80.25 184.75 88.13 196.41ZM96.49 163.28C106.91 156.24 121.06 158.98 128.1 169.4C129.3 171.18 130.22 173.07 130.86 175.01C131.04 175.54 131.19 176.08 131.33 176.62C131.53 177.4 131.68 178.19 131.79 178.99C132.36 183.11 131.79 187.3 130.18 191.1C128.52 194.99 125.76 198.47 121.99 201.01C111.57 208.05 97.42 205.31 90.38 194.89C90.33 194.82 90.29 194.75 90.25 194.69C87.87 191.09 86.65 187.05 86.5 183.02C86.47 182.23 86.48 181.44 86.53 180.65C86.57 180.08 86.63 179.51 86.71 178.94C87.59 172.8 90.96 167.03 96.5 163.28H96.49Z" fill="#BFCBE2"/>
<path d="M86.49 183.01L131.79 178.97C131.68 178.18 131.53 177.39 131.33 176.6L86.52 180.63C86.47 181.42 86.46 182.21 86.49 183V183.01Z" fill="#E2E9F7"/>
<path d="M130.86 175C130.22 173.06 129.3 171.17 128.1 169.39C121.06 158.97 106.91 156.23 96.49 163.27C90.94 167.02 87.57 172.78 86.7 178.93L130.87 174.99L130.86 175Z" fill="#E2E9F7"/>
<path d="M90.38 194.89C97.42 205.31 111.57 208.05 121.99 201.01C125.76 198.46 128.52 194.99 130.18 191.1L90.24 194.69C90.28 194.76 90.33 194.83 90.37 194.89H90.38Z" fill="#E2E9F7"/>
<path d="M90.24 194.69L130.18 191.1C131.8 187.3 132.37 183.1 131.79 178.99L86.49 183.03C86.64 187.06 87.86 191.1 90.24 194.7V194.69Z" fill="white"/>
<path d="M86.52 180.64L131.33 176.61C131.19 176.07 131.04 175.53 130.86 175L86.69 178.94C86.61 179.51 86.55 180.08 86.51 180.65L86.52 180.64Z" fill="white"/>
<path d="M138.48 191.65L144.88 192.89C144.88 192.71 144.9 192.52 144.93 192.34L145.91 187.25C145.96 186.97 146.06 186.72 146.18 186.48L139.85 185.26C139.62 187.43 139.16 189.58 138.47 191.66L138.48 191.65Z" fill="#7A92BC"/>
<path d="M136.43 191.26L138.48 191.66C139.17 189.58 139.63 187.44 139.86 185.26L137.68 184.84L136.44 191.26H136.43Z" fill="#7A92BC"/>
<path d="M151.78 194.23L144.88 192.9C144.88 194.24 145.84 195.44 147.2 195.7L173.7 200.83C175.25 201.13 176.76 200.11 177.05 198.56L178.03 193.47C178.33 191.92 177.31 190.41 175.76 190.12L149.26 184.99C147.99 184.74 146.75 185.39 146.18 186.48L153.02 187.8L151.78 194.22V194.23Z" fill="#4C669B"/>
<path d="M145.92 187.25L144.94 192.34C144.9 192.53 144.89 192.71 144.89 192.89L151.79 194.22L153.03 187.8L146.19 186.48C146.07 186.72 145.97 186.98 145.92 187.25V187.25Z" fill="#4C669B"/>
</g>
<defs>
<clipPath id="clip0_110_126">
<rect width="249.47" height="212.66" fill="white"/>
</clipPath>
</defs>
</svg>
